<?xml version="1.0" encoding="utf-8"?>
<!-- Generator: Adobe Illustrator 22.0.1, SVG Export Plug-In . SVG Version: 6.00 Build 0)  -->
<svg version="1.1" xmlns="http://www.w3.org/2000/svg" xmlns:xlink="http://www.w3.org/1999/xlink" x="0px" y="0px"
	 viewBox="0 0 230 230" enable-background="new 0 0 230 230" xml:space="preserve">
<g id="Layer_1">
	<g>
		
			<circle fill="none" stroke="#0B1153" stroke-width="10.3235" stroke-linecap="round" stroke-linejoin="round" stroke-miterlimit="10" cx="52.6" cy="52.8" r="47.1"/>
		
			<circle fill="none" stroke="#0B1153" stroke-width="10.3235" stroke-linecap="round" stroke-linejoin="round" stroke-miterlimit="10" cx="177.4" cy="52.8" r="47.1"/>
		
			<path fill="none" stroke="#960048" stroke-width="10.3235" stroke-linecap="round" stroke-linejoin="round" stroke-miterlimit="10" d="
			M177.4,71.6c-10.4,0-18.8-8.4-18.8-18.8c0-10.4,8.4-18.8,18.8-18.8c10.4,0,18.8,8.4,18.8,18.8C196.2,63.2,187.8,71.6,177.4,71.6z"
			/>
		
			<circle fill="none" stroke="#0B1153" stroke-width="10.3235" stroke-linecap="round" stroke-linejoin="round" stroke-miterlimit="10" cx="52.6" cy="177.2" r="47.1"/>
		
			<path fill="none" stroke="#960048" stroke-width="10.3235" stroke-linecap="round" stroke-linejoin="round" stroke-miterlimit="10" d="
			M52.6,196c-10.4,0-18.8-8.4-18.8-18.8c0-10.4,8.4-18.8,18.8-18.8c10.4,0,18.8,8.4,18.8,18.8C71.3,187.5,62.9,196,52.6,196z"/>
		
			<ellipse transform="matrix(8.987468e-03 -1 1 8.987468e-03 -1.3491 353.0303)" fill="none" stroke="#0B1153" stroke-width="10.3235" stroke-linecap="round" stroke-linejoin="round" stroke-miterlimit="10" cx="177.4" cy="177.2" rx="47.1" ry="47.1"/>
		
			<path fill="none" stroke="#960048" stroke-width="10.3235" stroke-linecap="round" stroke-linejoin="round" stroke-miterlimit="10" d="
			M177.4,196c-10.4,0-18.8-8.4-18.8-18.8c0-10.4,8.4-18.8,18.8-18.8c10.4,0,18.8,8.4,18.8,18.8C196.2,187.5,187.8,196,177.4,196z"/>
	</g>
	
		<polyline fill="none" stroke="#960048" stroke-width="10.3235" stroke-linecap="round" stroke-linejoin="round" stroke-miterlimit="10" points="
		104.9,15.5 52.6,67.4 31.2,45.5 	"/>
</g>
<g id="Layer_2">
</g>
</svg>
