<?xml version="1.0" encoding="utf-8"?>
<!-- Generator: Adobe Illustrator 22.0.1, SVG Export Plug-In . SVG Version: 6.00 Build 0)  -->
<svg version="1.1" xmlns="http://www.w3.org/2000/svg" xmlns:xlink="http://www.w3.org/1999/xlink" x="0px" y="0px"
	 viewBox="0 0 516.8 484.7" enable-background="new 0 0 516.8 484.7" xml:space="preserve">
<g id="Layer_1">
	<g>
		
			<circle fill="none" stroke="#0B1153" stroke-width="10.4593" stroke-linecap="round" stroke-linejoin="round" stroke-miterlimit="10" cx="206.4" cy="169.7" r="47.7"/>
		
			<circle fill="none" stroke="#0B1153" stroke-width="10.4593" stroke-linecap="round" stroke-linejoin="round" stroke-miterlimit="10" cx="332.9" cy="169.7" r="47.7"/>
		
			<path fill="none" stroke="#960048" stroke-width="10.4593" stroke-linecap="round" stroke-linejoin="round" stroke-miterlimit="10" d="
			M332.9,188.7c-10.5,0-19-8.5-19-19c0-10.5,8.5-19,19-19c10.5,0,19,8.5,19,19C351.9,180.2,343.4,188.7,332.9,188.7z"/>
		
			<circle fill="none" stroke="#0B1153" stroke-width="10.4593" stroke-linecap="round" stroke-linejoin="round" stroke-miterlimit="10" cx="206.4" cy="295.7" r="47.7"/>
		
			<path fill="none" stroke="#960048" stroke-width="10.4593" stroke-linecap="round" stroke-linejoin="round" stroke-miterlimit="10" d="
			M206.4,314.7c-10.5,0-19-8.5-19-19c0-10.5,8.5-19,19-19c10.5,0,19,8.5,19,19C225.4,306.2,216.9,314.7,206.4,314.7z"/>
		
			<ellipse transform="matrix(8.987471e-03 -1 1 8.987471e-03 34.2215 625.9512)" fill="none" stroke="#0B1153" stroke-width="10.4593" stroke-linecap="round" stroke-linejoin="round" stroke-miterlimit="10" cx="332.9" cy="295.7" rx="47.7" ry="47.7"/>
		
			<path fill="none" stroke="#960048" stroke-width="10.4593" stroke-linecap="round" stroke-linejoin="round" stroke-miterlimit="10" d="
			M332.9,314.7c-10.5,0-19-8.5-19-19c0-10.5,8.5-19,19-19c10.5,0,19,8.5,19,19C351.9,306.2,343.4,314.7,332.9,314.7z"/>
	</g>
	
		<polyline fill="none" stroke="#960048" stroke-width="10.4593" stroke-linecap="round" stroke-linejoin="round" stroke-miterlimit="10" points="
		259.4,131.8 206.4,184.5 184.7,162.3 	"/>
</g>
<g id="Layer_2">
</g>
</svg>
