
<svg width="203px" height="214px" viewBox="0 0 203 214" version="1.1" xmlns="http://www.w3.org/2000/svg" xmlns:xlink="http://www.w3.org/1999/xlink">
    <!-- Generator: Sketch 48.2 (47327) - http://www.bohemiancoding.com/sketch -->
    <desc>Created with Sketch.</desc>
    <defs></defs>
    <g id="Page-1" stroke="none" stroke-width="1" fill="none" fill-rule="evenodd" stroke-linecap="round" stroke-linejoin="round">
        <g id="document" transform="translate(5.000000, 5.000000)" stroke-width="10.4593">
            <g id="Group" stroke="#0B1153">
                <path d="M24.8,203.6 C11.2,203.6 0.5,192.6 0.5,179.1 L0.5,0.5 L147.2,0.5 C160.8,0.5 171.4,11.5 171.4,25.1 L171.4,164.4" id="Shape"></path>
                <path d="M47.6,179.1 L47.6,164.4 L192.3,164.4 L192.3,178.2 C192.3,192.3 180.6,203.6 166.5,203.6 L23,203.6 C36.6,203.5 47.6,192.6 47.6,179.1 Z" id="Shape"></path>
            </g>
            <path d="M29.3,51 L142.6,51" id="Shape" stroke="#960048"></path>
            <path d="M29.3,79.8 L142.6,79.8" id="Shape" stroke="#960048"></path>
            <path d="M29.3,107.7 L142.6,107.7" id="Shape" stroke="#960048"></path>
            <path d="M29.3,135.6 L142.6,135.6" id="Shape" stroke="#960048"></path>
        </g>
    </g>
</svg>
