<?xml version="1.0" encoding="utf-8"?>
<!-- Generator: Adobe Illustrator 22.0.1, SVG Export Plug-In . SVG Version: 6.00 Build 0)  -->
<svg version="1.1" xmlns="http://www.w3.org/2000/svg" xmlns:xlink="http://www.w3.org/1999/xlink" x="0px" y="0px"
	 viewBox="0 0 230 230" enable-background="new 0 0 230 230" xml:space="preserve">
<g id="Layer_1">
	
		<path fill="none" stroke="#0B1153" stroke-width="10.3267" stroke-linecap="round" stroke-linejoin="round" stroke-miterlimit="10" d="
		M223,178.3v-141c0-6.7-2.9-12.7-7.3-17.1c-4.4-4.4-10.7-7-17.4-7H31c-6.7,0-12.6,2.6-17,7C9.5,24.5,7,30.5,7,37.2v141"/>
	<g>
		<g>
			
				<path fill="none" stroke="#960048" stroke-width="8.6056" stroke-linecap="round" stroke-linejoin="round" stroke-miterlimit="10" d="
				M201.5,105.1V64.4L187.3,49L173,33.7h-67h-67c-2.6,0-5,0.5-7,2.3c-2,1.9-3.6,3.8-3.6,6.4V69"/>
		</g>
		
			<path fill="none" stroke="#960048" stroke-width="8.6056" stroke-linecap="round" stroke-linejoin="round" stroke-miterlimit="10" d="
			M183.1,64.4l10.3,0l8,0L173,33.4l0.4,10.4l0.4,11.6c0,2.6,1,4.9,2.7,6.5C178.2,63.5,180.6,64.4,183.1,64.4z"/>
	</g>
	
		<path fill="none" stroke="#0B1153" stroke-width="10.3267" stroke-linecap="round" stroke-linejoin="round" stroke-miterlimit="10" d="
		M79.3,106.8V92.8V78.7c0-2.2-1.1-4.2-2.5-5.6c-1.4-1.4-3.6-2.3-5.8-2.3H42.7H14.5c-2.2,0-4,0.9-5.4,2.3C7.7,74.5,7,76.5,7,78.7
		v72.5v41c0,6.7,2.5,13,6.9,17.5c4.4,4.4,10.3,7.4,17,7.4h83.6h83.6c6.7,0,13-2.9,17.4-7.4c4.4-4.4,7.3-10.7,7.3-17.5v-19.6v-51.1
		c0-4-1.8-7.7-4.4-10.3s-6.4-4.3-10.5-4.3h-64.6H79.3z"/>
</g>
<g id="Layer_2">
</g>
</svg>
