<?xml version="1.0" encoding="utf-8"?>
<!-- Generator: Adobe Illustrator 22.0.1, SVG Export Plug-In . SVG Version: 6.00 Build 0)  -->
<svg version="1.1" xmlns="http://www.w3.org/2000/svg" xmlns:xlink="http://www.w3.org/1999/xlink" x="0px" y="0px"
	 viewBox="0 0 516.8 484.7" enable-background="new 0 0 516.8 484.7" xml:space="preserve">
<g id="Layer_1">
	
		<path fill="none" stroke="#0B1153" stroke-width="10.0983" stroke-linecap="round" stroke-linejoin="round" stroke-miterlimit="10" d="
		M359.6,304.2V166.3c0-6.6-2.8-12.4-7.1-16.8c-4.3-4.3-10.4-6.9-17-6.9H171.9c-6.6,0-12.3,2.6-16.7,6.9c-4.3,4.3-6.8,10.2-6.8,16.8
		v137.9"/>
	<g>
		<g>
			
				<path fill="none" stroke="#960048" stroke-width="8.4153" stroke-linecap="round" stroke-linejoin="round" stroke-miterlimit="10" d="
				M338.6,232.7v-39.9l-13.9-15l-13.9-15h-65.5h-65.5c-2.5,0-4.9,0.5-6.8,2.3c-1.9,1.8-3.5,3.8-3.5,6.3v26"/>
		</g>
		
			<path fill="none" stroke="#960048" stroke-width="8.4153" stroke-linecap="round" stroke-linejoin="round" stroke-miterlimit="10" d="
			M320.7,192.9l10.1,0l7.8,0l-27.8-30.2l0.4,10.1l0.4,11.4c0,2.6,1,4.8,2.6,6.3C315.9,192,318.1,192.9,320.7,192.9z"/>
	</g>
	
		<path fill="none" stroke="#0B1153" stroke-width="10.0983" stroke-linecap="round" stroke-linejoin="round" stroke-miterlimit="10" d="
		M219.1,234.4v-13.7v-13.8c0-2.1-1.1-4.1-2.5-5.5c-1.4-1.4-3.5-2.3-5.7-2.3h-27.6h-27.6c-2.1,0-3.9,0.9-5.3,2.3
		c-1.4,1.4-2.1,3.4-2.1,5.5v70.9v40.1c0,6.6,2.5,12.8,6.8,17.1c4.3,4.3,10.1,7.2,16.7,7.2h81.8h81.8c6.6,0,12.7-2.9,17-7.2
		c4.3-4.3,7.1-10.5,7.1-17.1v-19.2v-50c0-3.9-1.7-7.5-4.3-10.1s-6.3-4.2-10.2-4.2h-63.2H219.1z"/>
</g>
<g id="Layer_2">
</g>
</svg>
