<?xml version="1.0" encoding="utf-8"?>
<!-- Generator: Adobe Illustrator 22.0.1, SVG Export Plug-In . SVG Version: 6.00 Build 0)  -->
<svg version="1.1" xmlns="http://www.w3.org/2000/svg" xmlns:xlink="http://www.w3.org/1999/xlink" x="0px" y="0px"
	 viewBox="0 0 516.8 484.7" enable-background="new 0 0 516.8 484.7" xml:space="preserve">
<g id="Layer_1">

		<path fill="none" stroke="#960048" stroke-width="10.4593" stroke-linecap="round" stroke-linejoin="round" stroke-miterlimit="10" d="
		M341.5,322.2l-47.4,35.1v-43.1H164.3V163.9c0-15,12.3-27.5,27.3-27.5h161v164.1C352.5,309,348.4,317.1,341.5,322.2z"/>

		<path fill="#0B1153" stroke="#0B1153" stroke-width="8.7161" stroke-linecap="round" stroke-linejoin="round" stroke-miterlimit="10" d="
		M254,237.1v-0.3v-0.2c0-1.1,1-1.9,2.1-1.9c16.2,0,29.7-13.5,29.7-29.8c0-16.6-13.3-29.9-29.6-29.9c-11.1,0-20.7,5.9-25.9,15
		c-0.6,0.8-1.7,1.1-2.5,0.6c-1-0.6-1.3-1.8-0.6-2.5c5.7-10.2,16.6-16.9,29.1-16.9c18.3,0,33.7,15.1,33.7,33.8
		c0,17.8-14.2,32.6-31.6,33.6v19.4c0,1-1.2,1.9-2.2,1.9c-1.1,0-2.2-1-2.2-1.9V237.1z M254,277c0-1,1.1-1.9,2.2-1.9
		c1,0,2.2,1,2.2,1.9v3.7c0,1.1-1.2,1.9-2.2,1.9c-1.1,0-2.2-0.8-2.2-1.9V277z"/>
</g>
</svg>
