<?xml version="1.0" encoding="utf-8"?>
<!-- Generator: Adobe Illustrator 22.0.1, SVG Export Plug-In . SVG Version: 6.00 Build 0)  -->
<svg version="1.1" xmlns="http://www.w3.org/2000/svg" xmlns:xlink="http://www.w3.org/1999/xlink" x="0px" y="0px"
	 viewBox="0 0 516.8 484.7" enable-background="new 0 0 516.8 484.7" xml:space="preserve">
<g id="Layer_1">
	<g>
		
			<polyline fill="none" stroke="#960048" stroke-width="10.4593" stroke-linecap="round" stroke-linejoin="round" stroke-miterlimit="10" points="
			342.1,141.6 342.1,176.8 342.1,336 179.1,336 179.1,141.6 290.6,141.6 		"/>
		<g>
			
				<path fill="none" stroke="#0B1153" stroke-width="10.4593" stroke-linecap="round" stroke-linejoin="round" stroke-miterlimit="10" d="
				M253.4,291.7l94.8-94.8c15-15,15-39.2,0-54.1c-15-15-39.2-15-54.1,0l-93.3,93.3c-8.5,8.5-8.5,22.3,0,30.8
				c8.5,8.5,22.3,8.5,30.8,0l66.1-66.1"/>
			
				<path fill="none" stroke="#0B1153" stroke-width="10.4593" stroke-linecap="round" stroke-linejoin="round" stroke-miterlimit="10" d="
				M252.1,292.9c-21.7,21.7-56.8,21.7-78.5,0c-21.7-21.7-21.7-56.8,0-78.5l84.7-82.9"/>
		</g>
		
			<line fill="none" stroke="#960048" stroke-width="10.4593" stroke-linecap="round" stroke-linejoin="round" stroke-miterlimit="10" x1="179.1" y1="191.3" x2="179.1" y2="317.7"/>
		
			<line fill="none" stroke="#960048" stroke-width="10.4593" stroke-linecap="round" stroke-linejoin="round" stroke-miterlimit="10" x1="342.1" y1="224.4" x2="342.1" y2="180"/>
	</g>
</g>
<g id="Layer_2">
</g>
</svg>
