<svg id="Layer_1" data-name="Layer 1" xmlns="http://www.w3.org/2000/svg" viewBox="0 0 150 150"><defs><style>.logo-cls-1,.logo-cls-6{fill:#fff;}.logo-cls-1,.logo-cls-2,.logo-cls-4{stroke:#fff;stroke-miterlimit:10;}.logo-cls-1{stroke-width:5.41px;}.logo-cls-2,.logo-cls-4{fill:#221f1f;}.logo-cls-2{stroke-width:4.65px;}.logo-cls-2,.logo-cls-7{fill-rule:evenodd;}.logo-cls-3{fill:#960048;}.logo-cls-4{stroke-width:4.95px;}.logo-cls-5,.logo-cls-7{fill:#011e41;}</style></defs><title>RTC_logoSCALES</title><polygon class="logo-cls-1" points="90.93 117.69 99.25 118.53 95.5 86.93 106.4 62.92 103.58 31.03 95.03 28.21 92.57 25.49 82.38 23.89 80.97 25.98 80.34 23.91 65.04 23.91 64.11 26.8 62.24 25.07 48.55 31.04 49.04 44.23 46.39 46.62 39.5 63.26 54.03 84 53.31 119.34 59.87 118.93 90.93 117.69"/><path class="logo-cls-2" d="M128.64,58.28l-26.2-20.13c-.44-.29-1.74,4.39-2.19,4.68L97,48.14l30,10.45Z"/><path class="logo-cls-2" d="M50.18,46.73c.32-.14,5.11-4.68,5.46-4.52l-1.4-8L22.09,58.32l1.26.27Z"/><polygon class="logo-cls-3" points="72.68 130.74 97.55 110.31 93.36 89.41 102.69 62.51 100.66 48.52 53.78 42.05 43.1 61.7 54.78 79.92 52.88 116.64 72.68 130.74"/><path class="logo-cls-4" d="M23.86,62.34l20.4,40.58s-8.24,7.6-19.84,7.6-20.89-7.68-20.89-7.68ZM9.28,100.64H38.5l-14.73-29Z"/><path class="logo-cls-2" d="M28.18,59.74A4.77,4.77,0,1,1,23.41,55,4.77,4.77,0,0,1,28.18,59.74Z"/><path class="logo-cls-5" d="M23.2,63.43,43.61,104s-8.24,7.61-19.85,7.61-20.88-7.69-20.88-7.69Zm-14.57,39H37.85l-14.73-29Z"/><polygon class="logo-cls-6" points="23.11 73.72 37.85 102.44 8.66 102.44 23.11 73.72"/><path class="logo-cls-7" d="M28,59.74A4.77,4.77,0,1,1,23.19,55,4.76,4.76,0,0,1,28,59.74Z"/><polygon class="logo-cls-5" points="98.34 109.83 95.5 86.93 106.4 62.92 103.58 31.03 95.03 28.21 92.57 25.49 82.38 23.89 80.97 25.98 80.34 23.91 65.04 23.91 64.11 26.8 62.24 25.07 48.55 31.04 49.04 44.23 46.39 46.62 39.5 63.26 54.03 84 52.25 116.64 60.8 122.19 60.47 87.27 70.43 91.78 69.96 98.42 71.48 118.12 75.61 118.12 79.33 79.15 72.77 83.1 60.01 77.01 45.59 61.69 51.92 46.48 58.13 42.76 77.11 48.73 75 52.67 70.08 54.7 60.83 54.02 59.65 57.41 71.95 61.12 85.07 71.94 78.86 58.87 94.09 58.31 99.02 50.08 99.95 61.01 91.87 82.87 87.77 79.94 86.94 118.86 98.34 109.83"/><polygon class="logo-cls-3" points="54.62 32.95 61.65 30.47 63.64 39.6 56.02 38.92 54.62 32.95"/><polygon class="logo-cls-3" points="69.49 28.56 78.63 29.01 77.34 41.74 69.61 40.84 69.49 28.56"/><path class="logo-cls-4" d="M127.59,59.61,148,100.18s-8.24,7.6-19.85,7.6-20.88-7.68-20.88-7.68ZM113,98.08h29.22L127.51,69Z"/><path class="logo-cls-2" d="M122.66,58a4.77,4.77,0,1,0,4.76-4.77A4.76,4.76,0,0,0,122.66,58Z"/><path class="logo-cls-5" d="M127.59,59.61,148,100.18s-8.24,7.6-19.85,7.6-20.88-7.68-20.88-7.68ZM113,98.56h29.22l-14.73-29Z"/><polygon class="logo-cls-6" points="127.47 69.52 142.24 98.57 112.95 98.57 127.47 69.52"/><path class="logo-cls-7" d="M122.79,58a4.77,4.77,0,1,0,4.77-4.77A4.77,4.77,0,0,0,122.79,58Z"/><polygon class="logo-cls-3" points="83.2 29.8 90.93 31.04 88.71 42.08 82.73 41.52 83.2 29.8"/><polygon class="logo-cls-3" points="94.33 32.39 101.01 34.53 98.31 44.56 92.34 43.43 94.33 32.39"/><path class="logo-cls-7" d="M128.64,58.28l-26.2-20.13c-.44-.29-1.74,4.39-2.19,4.68L97,48.14l30,10.45Z"/><path class="logo-cls-7" d="M50.18,46.73c.32-.14,5.11-4.68,5.46-4.52l-1.4-8L22.09,58.32l1.26.27Z"/><polygon class="logo-cls-3" points="82.15 46.25 87.77 47.26 84.72 51.66 80.74 50.98 82.15 46.25"/><polygon class="logo-cls-3" points="91.52 47.83 96.56 48.84 92.57 53.57 89.17 52.78 91.52 47.83"/></svg>
